<svg width="200" height="200" viewBox="0 0 200 200" fill="none" xmlns="http://www.w3.org/2000/svg">
<path d="M0 50C0 22.3858 22.3858 0 50 0H150C177.614 0 200 22.3858 200 50V150C200 177.614 177.614 200 150 200H50C22.3858 200 0 177.614 0 150V50Z" fill="white"/>
<path d="M99.5 38.6364C113.345 38.6364 124.609 50 124.609 63.6359C124.609 71.6241 124.609 84.0909 124.609 84.0909H74.3913C74.3913 84.0909 74.3913 71.6241 74.3913 63.6359C74.3913 50 85.6551 38.6364 99.5 38.6364Z" fill="white" fill-opacity="0.85"/>
<path d="M60.6957 97.7273H138.304V161.364H60.6957V97.7273Z" fill="white" fill-opacity="0.85"/>
<path d="M145.152 84.0909H138.304V63.6359C138.304 42.3318 120.897 25 99.5 25C78.1033 25 60.6957 42.3318 60.6957 63.6359V84.0909H53.8478C50.066 84.0909 47 87.1436 47 90.9091V168.182C47 171.947 50.066 175 53.8478 175H145.152C148.934 175 152 171.947 152 168.182V90.9091C152 87.1436 148.934 84.0909 145.152 84.0909ZM74.3913 63.6359C74.3913 49.8514 85.6551 38.6364 99.5 38.6364C113.345 38.6364 124.609 49.8514 124.609 63.6359C124.609 71.6241 124.609 84.0909 124.609 84.0909H74.3913C74.3913 84.0909 74.3913 71.6241 74.3913 63.6359ZM138.304 161.364H60.6957V97.7273H138.304V161.364Z" fill="black"/>
<path d="M97.6754 107.836V115.7H87.2043V148.134H77.5775V115.7H67.1064V107.836H97.6754Z" fill="black"/>
<path d="M121.085 148.134L115.061 139.237L109.994 148.134H99.5794L109.938 131.774L99.2979 116.102H110.107L116.131 124.943L121.197 116.102H131.612L121.085 132.233L131.894 148.134H121.085Z" fill="black"/>
</svg>
