<svg width="1440" height="30" viewBox="0 0 1440 30" fill="none" xmlns="http://www.w3.org/2000/svg">
<g clip-path="url(#clip0_220_1665)">
<path d="M691.543 10.624L687.619 6.592L691.543 2.56H694.711L690.787 6.592L694.711 10.624H691.543ZM712.662 0.436V13H710.142V7.654H704.76V13H702.24V0.436H704.76V5.602H710.142V0.436H712.662ZM720.974 13.126C719.798 13.126 718.718 12.85 717.734 12.298C716.75 11.746 715.97 10.984 715.394 10.012C714.818 9.028 714.53 7.918 714.53 6.682C714.53 5.458 714.818 4.36 715.394 3.388C715.97 2.404 716.75 1.636 717.734 1.084C718.718 0.532 719.798 0.256 720.974 0.256C722.162 0.256 723.242 0.532 724.214 1.084C725.198 1.636 725.972 2.404 726.536 3.388C727.112 4.36 727.4 5.458 727.4 6.682C727.4 7.918 727.112 9.028 726.536 10.012C725.972 10.984 725.198 11.746 724.214 12.298C723.23 12.85 722.15 13.126 720.974 13.126ZM720.974 10.876C721.73 10.876 722.396 10.708 722.972 10.372C723.548 10.024 723.998 9.532 724.322 8.896C724.646 8.26 724.808 7.522 724.808 6.682C724.808 5.842 724.646 5.11 724.322 4.486C723.998 3.85 723.548 3.364 722.972 3.028C722.396 2.692 721.73 2.524 720.974 2.524C720.218 2.524 719.546 2.692 718.958 3.028C718.382 3.364 717.932 3.85 717.608 4.486C717.284 5.11 717.122 5.842 717.122 6.682C717.122 7.522 717.284 8.26 717.608 8.896C717.932 9.532 718.382 10.024 718.958 10.372C719.546 10.708 720.218 10.876 720.974 10.876ZM742.973 0.436V13H740.453V4.828L737.087 13H735.179L731.795 4.828V13H729.275V0.436H732.137L736.133 9.778L740.129 0.436H742.973ZM747.985 2.47V5.62H752.215V7.618H747.985V10.948H752.755V13H745.465V0.417999H752.755V2.47H747.985Z" fill="white"/>
</g>
<defs>
<clipPath id="clip0_220_1665">
<rect width="1440" height="30" fill="white"/>
</clipPath>
</defs>
</svg>
